# File created by Blade
# Date/Time:  Mon Sep 22 17:46:01 2014
# Frame Rate: 120.000 fps
#------------------------------------------------------
:FULLY-SPECIFIED
:DEGREES
2408
root 5.429193 36.891440 4.957243 -9.221427 -28.843939 -3.625914
RightUpLeg 1.068949 -34.360997 -21.903719
RightLeg 43.172879 -0.000000 -0.000000
RightFoot -10.242922 -34.092425 20.002074
RightToeBase -4.483014 -0.000000 0.000000
LeftUpLeg 20.066992 13.300914 -3.427646
LeftLeg -6.474956 -0.000000 0.000000
LeftFoot -12.375378 22.242199 -10.895334
LeftToeBase 4.045327 -0.000000 -0.000000
Spine 18.197837 -3.186159 -18.217589
RightShoulder 0.288840 -31.565405 -4.011206
RightArm 18.154905 -20.052907 69.176384
RightForeArm 7.067637 -0.000000 50.517313
RightHand -2.750311 -0.000000 -13.795368
RightHandThumb1 -24.326973 -0.000000 -32.862282
LeftShoulder -16.056182 32.120432 5.459547
LeftArm 53.321531 -26.380889 -70.769008
LeftForeArm 26.835379 -0.000000 111.641385
LeftHand -30.919960 -0.000000 13.739271
LeftHandThumb1 -26.253704 0.000000 33.147579
Head 29.493052 15.821213 19.101977
2409
root 5.423564 36.883711 4.971115 -9.341075 -28.773504 -3.506705
RightUpLeg 0.960376 -35.112011 -22.269294
RightLeg 46.140602 -0.000000 -0.000000
RightFoot -10.440142 -34.034891 20.051961
RightToeBase -4.024966 -0.000000 0.000000
LeftUpLeg 20.172635 13.168267 -3.540308
LeftLeg -6.505891 -0.000000 0.000000
LeftFoot -12.410586 22.274623 -10.980833
LeftToeBase 4.019341 -0.000000 -0.000000
Spine 18.224712 -3.106156 -18.280403
RightShoulder 0.188494 -31.592135 -3.944249
RightArm 18.135449 -20.039935 69.203546
RightForeArm 7.039337 -0.000000 50.686487
RightHand -2.703630 -0.000000 -13.821931
RightHandThumb1 -24.326973 -0.000000 -32.862282
LeftShoulder -16.062698 32.148415 5.362701
LeftArm 53.470329 -26.398600 -70.947972
LeftForeArm 26.976447 -0.000000 111.692643
LeftHand -30.778025 -0.000000 13.756622
LeftHandThumb1 -26.253704 0.000000 33.147579
Head 29.451489 15.771734 19.022793
2410
root 5.414027 36.877291 4.984568 -9.452837 -28.747754 -3.416170
RightUpLeg 0.868014 -35.761870 -22.589952
RightLeg 49.066416 -0.000000 -0.000000
RightFoot -10.502085 -34.018673 20.027667
RightToeBase -3.747398 -0.000000 0.000000
LeftUpLeg 20.285516 13.072248 -3.612655
LeftLeg -6.536047 -0.000000 0.000000
LeftFoot -12.454648 22.287284 -11.062196
LeftToeBase 4.133912 -0.000000 -0.000000
Spine 18.248620 -3.011104 -18.312968
RightShoulder 0.113793 -31.585754 -3.883682
RightArm 18.087029 -20.019560 69.237839
RightForeArm 6.922566 -0.000000 50.847477
RightHand -2.748690 -0.000000 -13.885452
RightHandThumb1 -24.326973 -0.000000 -32.862282
LeftShoulder -16.120949 32.131432 5.241932
LeftArm 53.609935 -26.366470 -71.105486
LeftForeArm 26.986256 -0.000000 111.739247
LeftHand -30.901052 -0.000000 13.792925
LeftHandThumb1 -26.253704 0.000000 33.147579
Head 29.423021 15.755639 18.927545
2411
root 5.402772 36.872507 4.996824 -9.562899 -28.766584 -3.349648
RightUpLeg 0.783284 -36.346466 -22.859862
RightLeg 51.935780 -0.000000 -0.000000
RightFoot -10.271225 -34.097605 19.607214
RightToeBase -3.960814 -0.000000 0.000000
LeftUpLeg 20.400022 13.031418 -3.647671
LeftLeg -6.541975 -0.000000 0.000000
LeftFoot -12.520496 22.271079 -11.185650
LeftToeBase 4.149328 -0.000000 -0.000000
Spine 18.276971 -2.868682 -18.314222
RightShoulder 0.051787 -31.607454 -3.832785
RightArm 18.079841 -20.018427 69.247054
RightForeArm 6.942394 0.000000 50.964597
RightHand -2.677937 -0.000000 -13.762312
RightHandThumb1 -24.326973 -0.000000 -32.862282
LeftShoulder -16.167262 32.107246 5.151463
LeftArm 53.746556 -26.321854 -71.342329
LeftForeArm 27.266120 0.000000 111.792837
LeftHand -30.916300 -0.000000 13.455885
LeftHandThumb1 -26.253704 0.000000 33.147579
Head 29.390919 15.728574 18.840502
